<svg width="11" height="10" viewBox="0 0 11 10" fill="none" xmlns="http://www.w3.org/2000/svg">
    <path d="M7.0214 5L10.513 1.50842C10.6787 1.343 10.7719 1.11853 10.7721 0.884393C10.7723 0.650251 10.6795 0.425617 10.5141 0.259907C10.3487 0.0941973 10.1242 0.000986589 9.89005 0.000779811C9.65591 0.000573033 9.43127 0.0933872 9.26556 0.258804L5.77399 3.75038L2.28241 0.258804C2.1167 0.0930948 1.89195 0 1.6576 0C1.42325 0 1.1985 0.0930948 1.03279 0.258804C0.867082 0.424514 0.773987 0.649264 0.773987 0.883613C0.773987 1.11796 0.867082 1.34271 1.03279 1.50842L4.52437 5L1.03279 8.49158C0.867082 8.65729 0.773987 8.88204 0.773987 9.11639C0.773987 9.35074 0.867082 9.57549 1.03279 9.7412C1.1985 9.90691 1.42325 10 1.6576 10C1.89195 10 2.1167 9.90691 2.28241 9.7412L5.77399 6.24962L9.26556 9.7412C9.43127 9.90691 9.65602 10 9.89037 10C10.1247 10 10.3495 9.90691 10.5152 9.7412C10.6809 9.57549 10.774 9.35074 10.774 9.11639C10.774 8.88204 10.6809 8.65729 10.5152 8.49158L7.0214 5Z" fill="#555555"/>
</svg>
