<svg width="12" height="12" viewBox="0 0 10 10" fill="none" xmlns="http://www.w3.org/2000/svg">
    <path d="M-1.11018e-05 8.03361V9.72227C-1.11018e-05 9.8778 0.115351 10 0.262176 10H1.85627C1.92444 10 1.99261 9.97223 2.0398 9.91669L7.76596 3.8564L5.79956 1.77335L0.078645 7.83364C0.0262076 7.88919 -1.11018e-05 7.95584 -1.11018e-05 8.03361ZM9.28664 2.24551C9.33525 2.19412 9.37382 2.13308 9.40013 2.06588C9.42645 1.99868 9.43999 1.92664 9.43999 1.85389C9.43999 1.78114 9.42645 1.70911 9.40013 1.64191C9.37382 1.57471 9.33525 1.51367 9.28664 1.46228L8.05961 0.162456C8.0111 0.110961 7.95347 0.0701072 7.89004 0.0422324C7.8266 0.0143576 7.7586 9.53674e-06 7.68992 9.53674e-06C7.62125 9.53674e-06 7.55325 0.0143576 7.48981 0.0422324C7.42637 0.0701072 7.36875 0.110961 7.32024 0.162456L6.36064 1.17898L8.32704 3.26204L9.28664 2.24551Z" fill="#555555"/>
</svg>
