<svg width="12" height="11" viewBox="0 0 12 11" fill="none" xmlns="http://www.w3.org/2000/svg">
    <path d="M9.39712 4.5H4.77742C4.33775 4.5 4.29952 4.9023 4.29952 5.4C4.29952 5.8977 4.33775 6.3 4.77742 6.3H9.39712C9.83678 6.3 9.87502 5.8977 9.87502 5.4C9.87502 4.9023 9.83678 4.5 9.39712 4.5ZM10.9901 9H4.77742C4.33775 9 4.29952 9.4023 4.29952 9.9C4.29952 10.3977 4.33775 10.8 4.77742 10.8H10.9901C11.4298 10.8 11.468 10.3977 11.468 9.9C11.468 9.4023 11.4298 9 10.9901 9ZM4.77742 1.8H10.9901C11.4298 1.8 11.468 1.3977 11.468 0.9C11.468 0.4023 11.4298 0 10.9901 0H4.77742C4.33775 0 4.29952 0.4023 4.29952 0.9C4.29952 1.3977 4.33775 1.8 4.77742 1.8ZM2.22862 4.5H0.794916C0.355249 4.5 0.317017 4.9023 0.317017 5.4C0.317017 5.8977 0.355249 6.3 0.794916 6.3H2.22862C2.66828 6.3 2.70652 5.8977 2.70652 5.4C2.70652 4.9023 2.66828 4.5 2.22862 4.5ZM2.22862 9H0.794916C0.355249 9 0.317017 9.4023 0.317017 9.9C0.317017 10.3977 0.355249 10.8 0.794916 10.8H2.22862C2.66828 10.8 2.70652 10.3977 2.70652 9.9C2.70652 9.4023 2.66828 9 2.22862 9ZM2.22862 0H0.794916C0.355249 0 0.317017 0.4023 0.317017 0.9C0.317017 1.3977 0.355249 1.8 0.794916 1.8H2.22862C2.66828 1.8 2.70652 1.3977 2.70652 0.9C2.70652 0.4023 2.66828 0 2.22862 0Z" fill="#001133" fill-opacity="0.7"/>
</svg>
