<svg width="12" height="12" viewBox="0 0 12 12" fill="none" xmlns="http://www.w3.org/2000/svg">
    <path fill-rule="evenodd" clip-rule="evenodd" d="M10.6276 6C10.6276 6.204 10.6091 6.396 10.5844 6.588L11.8859 7.578C12.0031 7.668 12.034 7.83 11.96 7.962L10.7263 10.038C10.6708 10.134 10.5659 10.188 10.4611 10.188C10.424 10.188 10.387 10.182 10.35 10.17L8.81412 9.57C8.49336 9.804 8.14794 10.008 7.77167 10.158L7.53727 11.748C7.51877 11.892 7.38923 12 7.23503 12H4.7677C4.61349 12 4.48396 11.892 4.46545 11.748L4.23105 10.158C3.85479 10.008 3.50936 9.81 3.18861 9.57L1.6527 10.17C1.62186 10.182 1.58485 10.188 1.54784 10.188C1.43681 10.188 1.33194 10.134 1.27643 10.038L0.0427659 7.962C-0.0312539 7.83 -0.000412286 7.668 0.116786 7.578L1.4183 6.588C1.39363 6.396 1.37512 6.198 1.37512 6C1.37512 5.802 1.39363 5.604 1.4183 5.412L0.116786 4.422C-0.000412286 4.332 -0.0374222 4.17 0.0427659 4.038L1.27643 1.962C1.33194 1.866 1.43681 1.812 1.54167 1.812C1.57868 1.812 1.61569 1.818 1.6527 1.83L3.18861 2.43C3.50936 2.196 3.85479 1.992 4.23105 1.842L4.46545 0.252C4.48396 0.108 4.61349 0 4.7677 0H7.23503C7.38923 0 7.51877 0.108 7.53727 0.252L7.77167 1.842C8.14794 1.992 8.49336 2.19 8.81412 2.43L10.35 1.83C10.3809 1.818 10.4179 1.812 10.4549 1.812C10.5659 1.812 10.6708 1.866 10.7263 1.962L11.96 4.038C12.034 4.17 12.0031 4.332 11.8859 4.422L10.5844 5.412C10.6091 5.604 10.6276 5.796 10.6276 6ZM9.39398 6C9.39398 5.874 9.38781 5.748 9.36313 5.562L9.27678 4.884L9.82576 4.464L10.4858 3.954L10.054 3.228L9.27061 3.534L8.61677 3.792L8.05545 3.372C7.80872 3.192 7.56199 3.054 7.29675 2.946L6.64291 2.688L6.54421 2.01L6.42701 1.2H5.56962L5.44625 2.01L5.34756 2.688L4.69372 2.946C4.44082 3.048 4.18791 3.192 3.92268 3.384L3.36753 3.792L2.72602 3.54L1.94265 3.234L1.51086 3.96L2.17704 4.464L2.72602 4.884L2.63967 5.562C2.62116 5.742 2.60883 5.88 2.60883 6C2.60883 6.12 2.62116 6.258 2.63967 6.444L2.72602 7.122L2.17704 7.542L1.51086 8.046L1.94265 8.772L2.72602 8.466L3.37987 8.208L3.94118 8.628C4.18791 8.808 4.43465 8.946 4.69989 9.054L5.35373 9.312L5.45242 9.99L5.56962 10.8H6.43318L6.55655 9.99L6.65524 9.312L7.30908 9.054C7.56199 8.952 7.81489 8.808 8.08012 8.616L8.63527 8.208L9.27678 8.46L10.0602 8.766L10.4919 8.04L9.82576 7.536L9.27678 7.116L9.36313 6.438C9.38164 6.258 9.39398 6.126 9.39398 6ZM6.00132 3.6C4.63813 3.6 3.534 4.674 3.534 6C3.534 7.326 4.63813 8.4 6.00132 8.4C7.36452 8.4 8.46865 7.326 8.46865 6C8.46865 4.674 7.36452 3.6 6.00132 3.6ZM4.76776 6C4.76776 6.66 5.32291 7.2 6.00142 7.2C6.67994 7.2 7.23509 6.66 7.23509 6C7.23509 5.34 6.67994 4.8 6.00142 4.8C5.32291 4.8 4.76776 5.34 4.76776 6Z" fill="#555555"/>
</svg>
